<svg xmlns="http://www.w3.org/2000/svg" xmlns:xlink="http://www.w3.org/1999/xlink" width="250" zoomAndPan="magnify" viewBox="0 0 187.5 187.499992" height="250" preserveAspectRatio="xMidYMid meet" version="1.0"><defs><g/></defs><g fill="#490a3d" fill-opacity="1"><g transform="translate(14.471335, 164.864676)"><g><path d="M 42.34375 -69.640625 C 42.34375 -62.816406 43.175781 -56.660156 44.84375 -51.171875 C 46.519531 -45.691406 48.929688 -40.976562 52.078125 -37.03125 C 55.222656 -33.082031 59.070312 -30.035156 63.625 -27.890625 C 68.175781 -25.753906 73.394531 -24.6875 79.28125 -24.6875 C 85.03125 -24.6875 90.210938 -25.753906 94.828125 -27.890625 C 99.441406 -30.035156 103.320312 -33.082031 106.46875 -37.03125 C 109.613281 -40.976562 112.019531 -45.691406 113.6875 -51.171875 C 115.363281 -56.660156 116.203125 -62.816406 116.203125 -69.640625 C 116.203125 -76.460938 115.363281 -82.648438 113.6875 -88.203125 C 112.019531 -93.753906 109.613281 -98.503906 106.46875 -102.453125 C 103.320312 -106.398438 99.441406 -109.441406 94.828125 -111.578125 C 90.210938 -113.722656 85.03125 -114.796875 79.28125 -114.796875 C 73.394531 -114.796875 68.175781 -113.691406 63.625 -111.484375 C 59.070312 -109.273438 55.222656 -106.195312 52.078125 -102.25 C 48.929688 -98.3125 46.519531 -93.5625 44.84375 -88 C 43.175781 -82.445312 42.34375 -76.328125 42.34375 -69.640625 Z M 148.515625 -69.640625 C 148.515625 -57.734375 146.742188 -47.265625 143.203125 -38.234375 C 139.660156 -29.203125 134.8125 -21.640625 128.65625 -15.546875 C 122.5 -9.460938 115.171875 -4.878906 106.671875 -1.796875 C 98.171875 1.273438 89.039062 2.8125 79.28125 2.8125 C 69.78125 2.8125 60.8125 1.273438 52.375 -1.796875 C 43.945312 -4.878906 36.585938 -9.460938 30.296875 -15.546875 C 24.015625 -21.640625 19.066406 -29.203125 15.453125 -38.234375 C 11.835938 -47.265625 10.03125 -57.734375 10.03125 -69.640625 C 10.03125 -81.546875 11.90625 -92.015625 15.65625 -101.046875 C 19.40625 -110.078125 24.457031 -117.671875 30.8125 -123.828125 C 37.164062 -129.984375 44.519531 -134.597656 52.875 -137.671875 C 61.238281 -140.753906 70.039062 -142.296875 79.28125 -142.296875 C 88.78125 -142.296875 97.742188 -140.753906 106.171875 -137.671875 C 114.597656 -134.597656 121.957031 -129.984375 128.25 -123.828125 C 134.539062 -117.671875 139.488281 -110.078125 143.09375 -101.046875 C 146.707031 -92.015625 148.515625 -81.546875 148.515625 -69.640625 Z M 148.515625 -69.640625 "/></g></g></g></svg>