<svg xmlns="http://www.w3.org/2000/svg" xmlns:xlink="http://www.w3.org/1999/xlink" width="250" zoomAndPan="magnify" viewBox="0 0 187.5 187.499992" height="250" preserveAspectRatio="xMidYMid meet" version="1.0"><defs><g/></defs><g fill="#b4114a" fill-opacity="1"><g transform="translate(26.817037, 164.989694)"><g><path d="M 56.796875 -140.6875 C 77.671875 -140.6875 93.660156 -136.972656 104.765625 -129.546875 C 115.867188 -122.128906 121.421875 -110.59375 121.421875 -94.9375 C 121.421875 -85.164062 119.179688 -77.234375 114.703125 -71.140625 C 110.222656 -65.054688 103.765625 -60.273438 95.328125 -56.796875 C 98.140625 -53.316406 101.082031 -49.335938 104.15625 -44.859375 C 107.238281 -40.378906 110.285156 -35.695312 113.296875 -30.8125 C 116.304688 -25.925781 119.21875 -20.835938 122.03125 -15.546875 C 124.84375 -10.265625 127.453125 -5.082031 129.859375 0 L 94.734375 0 C 92.191406 -4.550781 89.613281 -9.164062 87 -13.84375 C 84.394531 -18.53125 81.71875 -23.082031 78.96875 -27.5 C 76.226562 -31.914062 73.519531 -36.097656 70.84375 -40.046875 C 68.164062 -43.992188 65.488281 -47.570312 62.8125 -50.78125 L 47.359375 -50.78125 L 47.359375 0 L 16.0625 0 L 16.0625 -137.078125 C 22.882812 -138.421875 29.941406 -139.359375 37.234375 -139.890625 C 44.523438 -140.421875 51.046875 -140.6875 56.796875 -140.6875 Z M 58.609375 -114 C 56.328125 -114 54.285156 -113.929688 52.484375 -113.796875 C 50.679688 -113.660156 48.972656 -113.523438 47.359375 -113.390625 L 47.359375 -75.671875 L 56.203125 -75.671875 C 67.972656 -75.671875 76.398438 -77.140625 81.484375 -80.078125 C 86.566406 -83.023438 89.109375 -88.046875 89.109375 -95.140625 C 89.109375 -101.960938 86.53125 -106.8125 81.375 -109.6875 C 76.226562 -112.5625 68.640625 -114 58.609375 -114 Z M 58.609375 -114 "/></g></g></g></svg>